<?xml version="1.0" encoding="utf-8"?>
<!-- Svg Vector Icons : http://www.onlinewebfonts.com/icon -->
<!DOCTYPE svg PUBLIC "-//W3C//DTD SVG 1.1//EN" "http://www.w3.org/Graphics/SVG/1.1/DTD/svg11.dtd">
<svg version="1.1" xmlns="http://www.w3.org/2000/svg" xmlns:xlink="http://www.w3.org/1999/xlink" x="0px" y="0px" viewBox="0 0 1000 1000" enable-background="new 0 0 1000 1000" xml:space="preserve">
<metadata> Svg Vector Icons : http://www.onlinewebfonts.com/icon </metadata>
<g><g transform="translate(0.000000,511.000000) scale(0.100000,-0.100000)"><path d="M4688.7,4996c-527.4-61.3-944.5-251.4-1269.5-580.6c-198.3-200.3-302.5-359.8-398.6-611.2c-110.4-284.2-126.7-392.5-137-942.4l-10.2-507l-75.6-75.6c-106.3-106.3-134.9-222.8-132.9-523.3c2-437.5,151.3-823.8,466.1-1195.9c85.9-102.2,141.1-190.1,165.6-265.8c106.3-323,286.2-625.6,509-856.5c492.7-511.1,1087.6-678.7,1682.4-474.3c239.2,81.8,437.5,206.5,646,408.8c263.7,255.5,433.4,523.4,568.3,901.5c28.6,81.8,83.8,175.8,141.1,245.3c220.8,259.6,368,531.5,451.8,830c34.8,124.7,47,218.7,47,406.8c2,292.3-26.6,412.9-124.7,517.2l-71.6,75.6l2.1,316.9c4.1,507-81.8,889.3-255.5,1124.4c-49.1,67.5-98.1,122.7-108.4,122.7c-8.2,0-28.6,57.2-45,126.7c-83.8,404.8-357.7,658.2-897.4,834.1C5485.9,4989.9,5044.4,5036.9,4688.7,4996z M6916.9,2083c30.7-45,30.7-63.4,0-208.5c-45-222.8-139-400.7-286.2-549.9c-149.2-147.2-265.8-220.8-431.3-261.7c-149.2-40.9-245.3-40.9-429.3-2c-372.1,79.7-584.6,288.2-643.9,631.7l-24.5,134.9h-98.1h-98.1l-24.5-134.9c-65.4-386.4-335.3-607.1-791.1-652.1c-462-47-893.3,314.8-999.6,834.1c-30.7,145.1-30.7,163.5,0,208.5l32.7,51.1h1880.7h1880.7L6916.9,2083z"/><path d="M7309.4,67.3c-30.7-18.4-36.8-53.2-36.8-243.3c0-267.8,12.3-286.2,175.8-286.2h110.4v-1097.8v-1095.7l-439.5-758.4c-241.2-419.1-453.8-795.2-472.2-840.2c-22.5-55.2-30.7-118.6-24.5-196.2c10.2-149.3,79.7-245.3,214.6-298.5c92-34.7,186-36.8,1437.1-36.8h1339l85.9,45c161.5,85.9,229,233,190.1,408.8c-14.3,63.4-171.7,355.7-451.8,840.2l-427.3,740v1144.8v1144.8h81.8c137,0,163.5,45,163.5,271.9c0,139-8.2,202.4-32.7,235.1l-30.7,45h-924C7679.4,89.8,7331.9,81.6,7309.4,67.3z M8756.7-511.2c24.5-34.8,28.6-214.6,28.6-1073.2c0-930.1-4.1-1034.4-34.8-1069.2c-30.7-32.7-73.6-36.8-476.3-36.8c-388.4,0-447.7,4.1-472.2,34.7c-24.5,26.6-28.6,220.8-28.6,1073.2v1042.6l49.1,38.8c47,38.8,77.7,40.9,478.3,34.7C8695.4-472.4,8730.2-474.4,8756.7-511.2z M8454.2-3179c141.1-73.6,208.5-179.9,208.5-331.2c0-298.5-347.5-474.3-582.6-294.4c-139,104.3-188.1,278-122.7,433.4c42.9,102.2,85.9,147.2,184,192.2C8247.7-3129.9,8358.1-3129.9,8454.2-3179z M7695.8-3931.3c110.4-87.9,155.4-173.8,155.4-300.5c0-384.3-500.8-521.3-701.2-192.2c-85.9,141.1-67.5,308.7,47,439.5c87.9,100.2,163.5,130.9,304.6,122.7C7595.6-3867.9,7634.5-3880.2,7695.8-3931.3z M9243.3-3925.2c100.2-40.9,155.4-124.7,155.4-231c0-171.7-104.2-278-271.9-276c-94,2.1-165.6,45-218.7,132.9c-77.7,124.7-28.6,294.4,104.2,365.9C9094.1-3888.3,9151.3-3886.3,9243.3-3925.2z"/><path d="M2908.1-623.7c-1267.4-517.2-1627.2-711.4-1962.5-1067.1c-179.9-190.1-302.5-372.1-447.7-670.5c-206.5-423.2-339.4-897.4-384.3-1383.9c-30.7-345.5-32.7-343.5,253.5-453.9c830-325,2062.7-513.1,3808.5-578.5c578.5-22.5,1598.6-14.3,2056.5,14.3l194.2,14.3l-40.9,83.8c-32.7,61.3-42.9,122.7-42.9,237.1c0,147.2,6.1,163.5,134.9,429.3c73.6,151.3,265.8,496.7,427.3,766.6c161.5,269.8,308.7,527.4,329.1,572.4c34.8,75.6,38.8,157.4,38.8,1024.2v942.4l-298.4,118.6c-163.5,65.4-304.6,110.4-312.8,100.2c-8.2-10.2-36.8-110.4-61.3-222.8c-79.7-347.5-300.5-1091.6-433.4-1463.7c-222.8-627.6-470.2-1159.1-852.5-1837.8c-200.3-355.7-241.2-408.9-310.7-408.9c-69.5,0-108.3,51.1-314.8,415c-576.5,1016-930.1,1909.4-1238.8,3125.7c-63.4,251.5-108.3,396.6-126.7,398.6C3308.8-466.3,3122.7-535.8,2908.1-623.7z M3171.8-2774.2c67.5-53.2,73.6-161.5,12.3-222.8c-38.8-38.8-67.5-40.9-770.7-40.9c-719.6,0-729.8,0-776.8,45c-63.4,59.3-61.3,147.2,4.1,210.6l49.1,51.1h713.5C3094.1-2731.3,3118.7-2733.3,3171.8-2774.2z"/><path d="M4553.7-1494.5c-22.5-26.6-14.3-94,42.9-374.1l69.5-341.4l296.4-6.2c163.5-2,314.8,0,339.4,4.1c38.8,10.2,51.1,51.1,110.4,349.6c55.2,273.9,61.3,343.4,40.9,368C5414.4-1447.5,4592.6-1449.6,4553.7-1494.5z"/><path d="M4684.6-2406.3c-18.4-32.7-149.2-613.3-151.3-670.5c0-47,214.6-478.4,382.3-764.6c61.3-106.3,85.8-132.9,102.2-112.4c94,116.6,455.9,815.7,455.9,879c0,87.9-143.1,658.3-169.7,674.6C5265.1-2375.6,4700.9-2379.7,4684.6-2406.3z"/></g></g>
</svg>