<?xml version="1.0" encoding="iso-8859-1"?>
<!-- Generator: Adobe Illustrator 19.0.0, SVG Export Plug-In . SVG Version: 6.00 Build 0)  -->
<svg version="1.1" id="Layer_1" xmlns="http://www.w3.org/2000/svg" xmlns:xlink="http://www.w3.org/1999/xlink" x="0px" y="0px"
	 viewBox="0 0 512 512" style="enable-background:new 0 0 512 512;" xml:space="preserve">
<g>
	<g>
		<path d="M437.186,273.194l56.527-97.908c3.882-6.722,3.882-15.004,0-21.726l-24.984-43.276
			c-9.248,11.375-21.682,20.051-35.931,24.669l17.014,29.17l-49.873,86.084h-40.372c2.181,7.242,3.359,14.644,3.359,22.424
			c0,7.798-1.183,15.234-3.373,22.476h40.386l53.009,92.052l3.136,5.552c5.999,10.392,19.286,14.011,29.676,8.012
			c10.393-5.999,13.952-19.256,7.953-29.648L437.186,273.194z"/>
	</g>
</g>
<g>
	<g>
		<path d="M40.704,440.584l-22.413,38.825c-6.002,10.391-2.442,23.678,7.95,29.677c3.421,1.976,7.156,2.914,10.841,2.914
			c7.508,0,14.811-3.896,18.836-10.866l10.451-18.103L77.703,463.4C63.235,459.475,50.452,451.426,40.704,440.584z"/>
	</g>
</g>
<g>
	<g>
		<path d="M55.919,51.122C49.92,40.729,36.631,37.172,26.242,43.17c-10.392,5.999-13.952,19.286-7.95,29.677l25.561,44.276
			c10.03-10.538,23.007-18.239,37.604-21.767L55.919,51.122z"/>
	</g>
</g>
<g>
	<g>
		<path d="M337.589,34.399H287.65c-7.762,0-14.934,4.461-18.814,11.183L209.417,148.82h-36.141
			c2.034,5.793,3.146,14.181,3.146,21.725c0,7.545-1.114,14.484-3.147,21.726h38.535l17.958,30.879
			c10.451-11.856,24.522-20.549,40.47-24.114l-19.919-34.652l49.874-86.534h34.022c-1.109-4.345-1.705-10.548-1.705-16.054
			C332.511,52.146,334.32,43.089,337.589,34.399z"/>
	</g>
</g>
<g>
	<g>
		<path d="M233.37,327.261l-21.56,37.365h-41.394c2.653,7.242,4.116,16.087,4.116,24.745c0,6.451-0.81,12.912-2.317,18.706h52.138
			c7.762,0,14.934-4.163,18.814-10.885l28.54-49.431C256.932,344.769,243.701,337.478,233.37,327.261z"/>
	</g>
</g>
<g>
	<g>
		<path d="M62.189,278.202l19.268-33.372c-14.595-3.528-27.573-11.229-37.604-21.767l-25.561,44.276
			c-3.883,6.722-3.883,15.004,0,21.725l26.095,45.199c10.427-10.114,23.697-17.304,38.493-20.226L62.189,278.202z"/>
	</g>
</g>
<g>
	<g>
		<path d="M99.519,108.109c-34.179,0-61.984,27.806-61.984,61.984s27.806,61.986,61.984,61.986c34.18,0,61.986-27.807,61.986-61.986
			C161.505,135.915,133.699,108.109,99.519,108.109z"/>
	</g>
</g>
<g>
	<g>
		<path d="M286.884,211.871c-34.178,0-61.984,27.806-61.984,61.984s27.806,61.986,61.984,61.986
			c34.18,0,61.986-27.807,61.986-61.986S321.064,211.871,286.884,211.871z"/>
	</g>
</g>
<g>
	<g>
		<path d="M409.209,0c-34.18,0-61.986,27.806-61.986,61.984c0,34.18,27.806,61.986,61.986,61.986
			c34.179,0,61.984-27.807,61.984-61.986C471.192,27.806,443.386,0,409.209,0z"/>
	</g>
</g>
<g>
	<g>
		<path d="M97.777,327.342c-34.18,0-61.986,27.807-61.986,61.986c0,34.178,27.806,61.986,61.986,61.986s61.986-27.807,61.986-61.986
			S131.957,327.342,97.777,327.342z"/>
	</g>
</g>
<g>
</g>
<g>
</g>
<g>
</g>
<g>
</g>
<g>
</g>
<g>
</g>
<g>
</g>
<g>
</g>
<g>
</g>
<g>
</g>
<g>
</g>
<g>
</g>
<g>
</g>
<g>
</g>
<g>
</g>
</svg>
